# xmcd
# Copyright (C) 1995-1998 Ti Kan
#
# Track frame offsets:
#       182
#       35135
#       57045
#       76572
#       88175
#       97445
#       120882
#       134865
#       150365
#       190390
#       206785
#       217522
#       269750
#       302570
#       323812
#
# Disc length: 4501 seconds
#
# Revision: 0
# Processed by: cddbd v1.5.2PL0 Copyright (c) Steve Scherf et al.
# Submitted via: CD-Import v1.0
#
DISCID=d211930f
DTITLE=Taraf De Haidouks - Musique Des Tziganes En Roumanie
DYEAR=1991
DGENRE=
TTITLE0=Rind De Hore
TTITLE1=Ardeleneasca Sirba Bulgara
TTITLE2=Balada Conducatorolui
TTITLE3=Sirba Lui Mitica Gindac
TTITLE4=Sirba De La Ruseanca
TTITLE5=Dragoste De Le Clejani
TTITLE6=Sirba Lui Cacurica
TTITLE7=Sirba De La Golasei
TTITLE8=Cintec Batrinesc De Haiduk
TTITLE9=Cintec De Superare Tiganesc
TTITLE10=Jamparale Ca La Vadulat
TTITLE11=In Curte La Stefan Voda
TTITLE12=Cintec De Superare Tiganesc
TTITLE13=Cimpoiu
TTITLE14=Indiaca
EXTD=
EXTT0=
EXTT1=
EXTT2=
EXTT3=
EXTT4=
EXTT5=
EXTT6=
EXTT7=
EXTT8=
EXTT9=
EXTT10=
EXTT11=
EXTT12=
EXTT13=
EXTT14=
PLAYORDER=
